<svg width="18" height="21" viewBox="0 0 18 21" fill="none" xmlns="http://www.w3.org/2000/svg">
<path d="M10.4207 14.6305C10.4207 15.3871 9.78469 16.0001 8.99971 16.0001C8.21473 16.0001 7.57811 15.3871 7.57811 14.6305L7.57811 5.15415L4.31995 8.29432C3.76461 8.829 2.86481 8.829 2.31004 8.29432C1.75526 7.75963 1.75526 6.89242 2.31004 6.35774L7.99419 0.879426C8.26078 0.622493 8.62229 0.478414 8.99915 0.478414C9.37601 0.478414 9.73752 0.622494 10.0041 0.879427L15.6883 6.35774C16.243 6.89242 16.243 7.75964 15.6883 8.29432C15.1335 8.829 14.2337 8.829 13.6789 8.29432L10.4208 5.15415L10.4207 14.6305Z" fill="white"/>
<path d="M2.39464e-07 19.3697C1.07184e-07 20.1262 0.636056 20.7393 1.42104 20.7393L16.579 20.7393C17.3639 20.7393 18 20.1262 18 19.3697C18 18.6131 17.3639 18.0001 16.579 18.0001L1.42104 18.0001C0.636057 18.0001 3.71744e-07 18.6131 2.39464e-07 19.3697Z" fill="white"/>
</svg>
